<svg width="512" height="512" viewBox="0 0 512 512" fill="none" xmlns="http://www.w3.org/2000/svg">
  <!-- Background with gradient -->
  <rect width="512" height="512" rx="128" fill="url(#gradient)"/>
  
  <!-- Fusion circles representing the "fusion" concept -->
  <circle cx="200" cy="200" r="80" fill="rgba(255,255,255,0.15)"/>
  <circle cx="312" cy="200" r="80" fill="rgba(255,255,255,0.15)"/>
  <circle cx="256" cy="312" r="80" fill="rgba(255,255,255,0.15)"/>
  
  <!-- Main musical note -->
  <g transform="translate(256, 256)">
    <!-- Note head -->
    <ellipse cx="0" cy="0" rx="24" ry="20" fill="white"/>
    <!-- Note stem -->
    <rect x="20" y="-60" width="8" height="60" fill="white"/>
    <!-- Note flag -->
    <path d="M28 -60 Q60 -60 60 -40 Q60 -20 40 -20 Q20 -20 28 -40" fill="white"/>
  </g>
  
  <!-- Secondary musical elements -->
  <g transform="translate(180, 180)">
    <!-- Small note -->
    <ellipse cx="0" cy="0" rx="12" ry="10" fill="rgba(255,255,255,0.8)"/>
    <rect x="10" y="-30" width="4" height="30" fill="rgba(255,255,255,0.8)"/>
  </g>
  
  <g transform="translate(332, 180)">
    <!-- Small note -->
    <ellipse cx="0" cy="0" rx="12" ry="10" fill="rgba(255,255,255,0.8)"/>
    <rect x="10" y="-30" width="4" height="30" fill="rgba(255,255,255,0.8)"/>
  </g>
  
  <!-- Sound wave lines -->
  <path d="M120 380 Q160 360 200 380 Q240 400 280 380 Q320 360 360 380 Q400 400 440 380" 
        stroke="rgba(255,255,255,0.6)" stroke-width="3" fill="none" stroke-linecap="round"/>
  
  <path d="M120 400 Q160 380 200 400 Q240 420 280 400 Q320 380 360 400 Q400 420 440 400" 
        stroke="rgba(255,255,255,0.4)" stroke-width="2" fill="none" stroke-linecap="round"/>
  
  <!-- Gradient definition -->
  <defs>
    <linearGradient id="gradient" x1="0%" y1="0%" x2="100%" y2="100%">
      <stop offset="0%" style="stop-color:#8B5CF6;stop-opacity:1" />
      <stop offset="50%" style="stop-color:#7C3AED;stop-opacity:1" />
      <stop offset="100%" style="stop-color:#3B82F6;stop-opacity:1" />
    </linearGradient>
  </defs>
</svg> 