<svg width="200" height="80" viewBox="0 0 200 80" xmlns="http://www.w3.org/2000/svg">
  <!-- Background -->
  <rect width="200" height="80" fill="#1a0b2e"/>
  
  <!-- Headphones -->
  <!-- Headband -->
  <path d="M 60 25 Q 80 15 100 15 Q 120 15 140 25" 
        stroke="#c0c0c0" stroke-width="3" fill="none" 
        stroke-linecap="round"/>
  
  <!-- Left earcup -->
  <circle cx="60" cy="30" r="15" fill="#ff0080"/>
  <circle cx="60" cy="30" r="12" fill="none" stroke="#8b5cf6" stroke-width="1" opacity="0.7"/>
  <circle cx="60" cy="30" r="9" fill="none" stroke="#00ffff" stroke-width="1" opacity="0.5"/>
  
  <!-- Right earcup -->
  <circle cx="140" cy="30" r="15" fill="#00ffff"/>
  <circle cx="140" cy="30" r="12" fill="none" stroke="#8b5cf6" stroke-width="1" opacity="0.7"/>
  <circle cx="140" cy="30" r="9" fill="none" stroke="#ff0080" stroke-width="1" opacity="0.5"/>
  
  <!-- Equalizer bars -->
  <rect x="85" y="35" width="2" height="8" fill="#00ff00"/>
  <rect x="88" y="32" width="2" height="11" fill="#ffff00"/>
  <rect x="91" y="30" width="2" height="13" fill="#ff6600"/>
  <rect x="94" y="33" width="2" height="10" fill="#00ff00"/>
  <rect x="97" y="31" width="2" height="12" fill="#ffff00"/>
  <rect x="100" y="34" width="2" height="9" fill="#ff6600"/>
  <rect x="103" y="29" width="2" height="14" fill="#00ff00"/>
  <rect x="106" y="36" width="2" height="7" fill="#ffff00"/>
  <rect x="109" y="32" width="2" height="11" fill="#ff6600"/>
  <rect x="112" y="35" width="2" height="8" fill="#00ff00"/>
  
  <!-- Text -->
  <text x="100" y="65" text-anchor="middle" 
        font-family="Arial, sans-serif" font-size="12" font-weight="bold" 
        fill="#ffffff">
    OMNIFUSIONMUSIC
  </text>
</svg> 